<svg xmlns="http://www.w3.org/2000/svg" data-name="Layer 1" viewBox="0 0 96 120" x="0px" y="0px"><path d="M54.476,70.923h.078a17.232,17.232,0,0,0,.074-34.463h-.079a17.232,17.232,0,0,0-.073,34.463ZM44.534,43.584A14.134,14.134,0,0,1,54.55,39.46h.065a14.232,14.232,0,0,1-.061,28.463H54.49a14.231,14.231,0,0,1-9.956-24.339Zm5.5,14.627V63.18a1.5,1.5,0,0,0,1.5,1.5h6.038a1.5,1.5,0,0,0,1.5-1.5V58.211h4.971a1.5,1.5,0,0,0,1.5-1.5V50.673a1.5,1.5,0,0,0-1.5-1.5H59.071V44.2a1.5,1.5,0,0,0-1.5-1.5H51.533a1.5,1.5,0,0,0-1.5,1.5v4.971h-4.97a1.5,1.5,0,0,0-1.5,1.5v6.038a1.5,1.5,0,0,0,1.5,1.5Zm-3.47-6.038h4.97a1.5,1.5,0,0,0,1.5-1.5V45.7h3.038v4.971a1.5,1.5,0,0,0,1.5,1.5h4.971v3.038H57.571a1.5,1.5,0,0,0-1.5,1.5V61.68H53.033V56.711a1.5,1.5,0,0,0-1.5-1.5h-4.97ZM94.39,18.707a5.243,5.243,0,0,0-2.856-2.855L68.791,6.431A5.278,5.278,0,0,0,61.9,9.286l-6.585,15.9L50.317,13.126a3.14,3.14,0,0,0-3.6-1.851L45.694,8.807a3.7,3.7,0,0,0,1.068-4.263l-.106-.256a3.717,3.717,0,0,0-4.851-2.009L22.576,10.245a3.717,3.717,0,0,0-2.01,4.851l.106.256a3.718,3.718,0,0,0,3.43,2.293c.114,0,.227-.023.341-.033l1.021,2.465a3.122,3.122,0,0,0-1.237,3.856l3.266,7.886H23.018L17.442,12.16A1.5,1.5,0,0,0,16,11.069h-3.71a5.646,5.646,0,1,0,0,3h2.576L19.9,31.819H16.747a1.5,1.5,0,0,0-1.458,1.855l9.463,38.917a7.448,7.448,0,0,0-7.6,7.5c0,3.736,2.728,7.518,7.942,7.518h2.916a7.889,7.889,0,0,0,15.491,0H66.023a7.892,7.892,0,1,0,0-3H43.5a7.889,7.889,0,0,0-15.491,0H25.092c-3.414,0-4.942-2.269-4.942-4.518s1.528-4.517,4.942-4.517H79.36a6.66,6.66,0,0,0,6.323-5.471l8.139-36.459a1.5,1.5,0,0,0-1.464-1.827H90.631l3.758-9.073A5.242,5.242,0,0,0,94.39,18.707ZM6.852,15.215A2.646,2.646,0,1,1,9.5,12.569,2.649,2.649,0,0,1,6.852,15.215Zm66.915,66A4.892,4.892,0,1,1,68.884,86.2c0-.029.009-.057.009-.087s-.007-.058-.009-.087A4.893,4.893,0,0,1,73.767,81.219Zm-38.014,0a4.892,4.892,0,1,1-4.892,4.892A4.9,4.9,0,0,1,35.753,81.219ZM47.545,14.275,48.9,17.551,28.356,26.062,27,22.785a.155.155,0,0,1,.076-.183l20.287-8.4A.157.157,0,0,1,47.545,14.275Zm-4.552-4.15.932,2.25-15.71,6.507-.932-2.251ZM23.444,14.2l-.107-.254a.714.714,0,0,1,.386-.931l19.23-7.966A.706.706,0,0,1,43.225,5a.713.713,0,0,1,.659.441l.107.255a.713.713,0,0,1-.386.931l-19.23,7.965a.712.712,0,0,1-.931-.387ZM29.5,28.834l20.547-8.511,4.761,11.5H30.74ZM82.755,69.451a3.693,3.693,0,0,1-3.395,3.125H27.836L18.655,34.819H90.486ZM91.618,21.6,87.384,31.819H58.059L56.935,29.1l7.733-18.669A2.276,2.276,0,0,1,67.642,9.2l22.743,9.421A2.277,2.277,0,0,1,91.618,21.6Zm-21.3-5.571a5.273,5.273,0,1,0,2.856,2.854A5.237,5.237,0,0,0,70.313,16.027Zm.084,5.744h0a2.275,2.275,0,1,1,0-1.742A2.26,2.26,0,0,1,70.4,21.771ZM82.328,21A5.275,5.275,0,1,0,85.183,27.9h0A5.276,5.276,0,0,0,82.328,21Zm.084,5.744a2.276,2.276,0,1,1-4.205-1.741,2.276,2.276,0,0,1,4.205,1.741Z"/><text x="0" y="111" fill="#000000" font-size="5px" font-weight="bold" font-family="'Helvetica Neue', Helvetica, Arial-Unicode, Arial, Sans-serif">Created by ari supriharyati</text><text x="0" y="116" fill="#000000" font-size="5px" font-weight="bold" font-family="'Helvetica Neue', Helvetica, Arial-Unicode, Arial, Sans-serif">from the Noun Project</text></svg>