<svg xmlns="http://www.w3.org/2000/svg" xmlns:xlink="http://www.w3.org/1999/xlink" version="1.1" x="0px" y="0px" viewBox="0 0 100 125" enable-background="new 0 0 100 100" xml:space="preserve"><g><circle cx="65.418" cy="49.488" r="1.947"/><path d="M73.361,93.054H26.639c-0.538,0-0.974,0.435-0.974,0.973S26.102,95,26.639,95h46.722c0.537,0,0.973-0.436,0.973-0.974   S73.898,93.054,73.361,93.054z"/><path d="M76.146,57.915c-0.439-6.647-4.632-12.266-10.483-14.755c0.028,0.059,0.063,0.114,0.091,0.174   c0.369,0.789,0.607,1.61,0.715,2.408c0.268,0.075,0.531,0.178,0.786,0.314c1.896,1.014,2.61,3.373,1.596,5.269   c-1.015,1.895-3.373,2.609-5.269,1.596c-1.896-1.014-2.61-3.374-1.596-5.269c0.567-1.063,1.559-1.754,2.653-1.978   c-0.234-1.198-0.847-2.51-1.819-3.443c-0.759-0.176-1.535-0.304-2.327-0.376C60.425,45.007,50,52.741,50,52.741   s-10.424-7.734-10.493-10.886c-0.558,0.051-1.106,0.128-1.648,0.231c-1.19,0.949-2.026,2.31-2.256,3.416   c0.426,0.24,0.759,0.632,0.945,1.116c1.62,0.71,3.057,2.305,4.165,4.62c0.163,0.342,0.163,0.732,0.007,1.073   c0.686,1.718,1.079,3.595,1.079,5.174c0,0.141,0,0.276-0.001,0.41h-1.782c0.001-0.132,0.002-0.267,0.002-0.41   c0-1.376-0.351-3.025-0.964-4.545c-0.275-0.122-0.5-0.337-0.629-0.608c-1.056-2.209-2.485-3.581-3.729-3.581   c-1.27,0-2.769,1.481-3.82,3.773c-0.144,0.313-0.41,0.553-0.731,0.667c-0.562,1.469-0.87,2.988-0.87,4.294   c0,0.136,0.001,0.273,0.002,0.41h-1.779c-0.001-0.134-0.003-0.266-0.003-0.41c0-1.559,0.369-3.353,1.039-5.064   c-0.113-0.312-0.1-0.651,0.038-0.951c0.664-1.452,1.504-2.689,2.428-3.579c0.539-0.521,1.118-0.928,1.723-1.213   c0.196-0.551,0.589-0.996,1.086-1.236c0.113-0.806,0.428-1.643,0.902-2.439c-6.046,2.406-10.409,8.123-10.858,14.913   c-2.433,0.194-4.354,2.231-4.354,4.714v0.111l0.019,0.108l4.277,24.808c0.063,2.555,2.161,4.613,4.731,4.613h42.944   c2.568,0,4.666-2.059,4.731-4.613l4.275-24.808l0.02-0.108v-0.111C80.499,60.146,78.578,58.109,76.146,57.915z M74.907,87.536   c0,1.897-1.539,3.436-3.435,3.436H28.529c-1.897,0-3.435-1.538-3.435-3.436l-4.295-24.907c0-1.896,1.539-3.436,3.436-3.436h51.532   c1.897,0,3.435,1.539,3.435,3.436L74.907,87.536z"/><path d="M50.001,73.047c-1.125,0-2.04,0.91-2.04,2.034c0,1.128,0.914,2.038,2.04,2.038c1.124,0,2.036-0.91,2.036-2.038   C52.037,73.957,51.125,73.047,50.001,73.047z"/><path d="M35.071,30.867c0.388,0.104,0.797,0.164,1.22,0.164h0.838c0.199,0,0.393-0.017,0.584-0.042   C39.606,38.208,44.393,43.334,50,43.334c4.801,0,9.001-3.758,11.298-9.369c1.435-0.848,2.597-1.881,3.394-3.049   c0.051-0.011,0.102-0.017,0.15-0.028c1.915-0.472,3.328-2.104,3.328-4.051v-3.29c0-1.946-1.413-3.579-3.328-4.05v-0.51   C64.842,11.274,58.163,5,49.955,5c-8.207,0-14.883,6.274-14.883,13.986v0.53c-1.87,0.5-3.241,2.114-3.241,4.031v3.29   C31.831,28.755,33.202,30.369,35.071,30.867z M60.655,30.95c-1.902,1.379-4.775,2.341-8.005,2.54   c-0.337-0.287-0.771-0.465-1.249-0.465H48.82c-1.075,0-1.944,0.871-1.944,1.944s0.869,1.944,1.944,1.944h2.582   c0.523,0,0.998-0.21,1.348-0.547c2.275-0.127,4.378-0.581,6.21-1.282c-2.117,3.799-5.343,6.228-8.959,6.228   c-5.853,0-10.688-6.357-11.447-14.602c0.515,0.128,1.147,0.379,1.835,0.859c0-0.001-1.307-7.759,1.452-8.847   c0,0,3.808,1.848,8.16,1.967c4.353-0.119,8.159-1.967,8.159-1.967c2.76,1.088,1.451,8.846,1.451,8.847   c0.689-0.48,1.321-0.731,1.836-0.859C61.31,28.193,61.039,29.614,60.655,30.95z M49.955,7.92c5.938,0,10.849,4.15,11.653,9.522   c-2.246-4.319-6.6-7.251-11.607-7.251c-5.111,0-9.536,3.058-11.739,7.525C38.934,12.211,43.919,7.92,49.955,7.92z"/></g><text x="0" y="115" fill="#000000" font-size="5px" font-weight="bold" font-family="'Helvetica Neue', Helvetica, Arial-Unicode, Arial, Sans-serif">Created by Wilson Joseph</text><text x="0" y="120" fill="#000000" font-size="5px" font-weight="bold" font-family="'Helvetica Neue', Helvetica, Arial-Unicode, Arial, Sans-serif">from the Noun Project</text></svg>