<svg xmlns="http://www.w3.org/2000/svg" version="1.1" viewBox="-5.0 -10.0 110.0 135.0">
 <path d="m57.004 65.914c-0.44531-0.44531-0.44531-1.1719 0-1.6172 0.44531-0.44531 1.168-0.44531 1.6172 0l1.0586 1.0586 1.0625-1.0586c0.44531-0.44531 1.168-0.44531 1.6172 0 0.44531 0.44531 0.44531 1.168 0 1.6172l-1.0586 1.0625 1.0586 1.0586c0.44531 0.44531 0.44531 1.1719 0 1.6172-0.44531 0.44531-1.1719 0.44531-1.6172 0l-1.0625-1.0586-1.0586 1.0586c-0.44531 0.44531-1.168 0.44531-1.6172 0-0.44531-0.44531-0.44531-1.168 0-1.6172l1.0625-1.0586zm3.7266-19.816c0.39453-0.49219 1.1133-0.57031 1.6016-0.17578 0.49219 0.39453 0.57031 1.1133 0.17578 1.6016l-2.3164 2.8633c-0.39453 0.49219-1.1133 0.57031-1.6016 0.17578-0.023438-0.019531-0.042969-0.035156-0.0625-0.054688l-1.5586-1.4492c-0.46094-0.42969-0.48828-1.1523-0.058594-1.6133 0.42969-0.46094 1.1523-0.48828 1.6133-0.058593l0.66406 0.61719zm-40.93 18.73c0.39453-0.49219 1.1133-0.57031 1.6016-0.17578 0.49219 0.39453 0.57031 1.1133 0.17578 1.6016l-2.3164 2.8633c-0.39453 0.49219-1.1133 0.57031-1.6016 0.17578-0.023437-0.019531-0.042968-0.035157-0.0625-0.054688l-1.5586-1.4492c-0.46094-0.42969-0.48828-1.1523-0.058593-1.6133 0.42969-0.46094 1.1523-0.48828 1.6133-0.058593l0.66406 0.61719zm0-18.73c0.39453-0.49219 1.1133-0.57031 1.6016-0.17578 0.49219 0.39453 0.57031 1.1133 0.17578 1.6016l-2.3164 2.8633c-0.39453 0.49219-1.1133 0.57031-1.6016 0.17578-0.023437-0.019531-0.042968-0.035156-0.0625-0.054688l-1.5586-1.4492c-0.46094-0.42969-0.48828-1.1523-0.058593-1.6133 0.42969-0.46094 1.1523-0.48828 1.6133-0.058593l0.66406 0.61719zm49.832 24.578c-0.63281 0-1.1445-0.51172-1.1445-1.1445s0.51172-1.1445 1.1445-1.1445h16.445c0.63281 0 1.1445 0.51172 1.1445 1.1445s-0.51172 1.1445-1.1445 1.1445zm0-5.1172c-0.63281 0-1.1445-0.51172-1.1445-1.1445 0-0.63281 0.51172-1.1445 1.1445-1.1445h11.582c0.63281 0 1.1445 0.51172 1.1445 1.1445 0 0.63281-0.51172 1.1445-1.1445 1.1445zm0-13.613c-0.63281 0-1.1445-0.51172-1.1445-1.1445 0-0.63281 0.51172-1.1445 1.1445-1.1445h16.445c0.63281 0 1.1445 0.51172 1.1445 1.1445 0 0.63281-0.51172 1.1445-1.1445 1.1445zm0-5.1172c-0.63281 0-1.1445-0.51172-1.1445-1.1445 0-0.63281 0.51172-1.1445 1.1445-1.1445h11.582c0.63281 0 1.1445 0.51172 1.1445 1.1445 0 0.63281-0.51172 1.1445-1.1445 1.1445zm-13.957 14.273c-0.54297 0-1.0352 0.22266-1.3906 0.57813-0.35547 0.35547-0.57812 0.84766-0.57812 1.3906v7.8047c0 0.54297 0.22266 1.0352 0.57812 1.3906 0.35547 0.35547 0.84766 0.57812 1.3906 0.57812h8.0156c0.53906 0 1.0312-0.22266 1.3867-0.57812l0.003906-0.003906c0.35547-0.35547 0.57812-0.84766 0.57812-1.3867v-7.8047c0-0.53906-0.22266-1.0312-0.57812-1.3867l-0.003906-0.003906c-0.35547-0.35547-0.84766-0.57813-1.3867-0.57813zm7.6953 2.2891h-7.3789v7.168h7.3789zm-7.6953-21.02c-0.54297 0-1.0352 0.22266-1.3906 0.57812-0.35547 0.35547-0.57812 0.84766-0.57812 1.3906v7.8047c0 0.53906 0.22266 1.0312 0.57812 1.3867l0.003906 0.003906c0.35547 0.35547 0.84766 0.57812 1.3867 0.57812h8.0156c0.53516 0 1.0234-0.21875 1.3828-0.57422l0.007812-0.007812c0.35547-0.35938 0.57812-0.84766 0.57812-1.3867v-7.8047c0-0.53906-0.22266-1.0312-0.57812-1.3867l-0.003906-0.003906c-0.35547-0.35547-0.84766-0.57812-1.3867-0.57812zm7.6953 2.2891h-7.3789v7.168h7.3789zm-34.664 26.016c-0.63281 0-1.1445-0.51172-1.1445-1.1445s0.51172-1.1445 1.1445-1.1445h16.445c0.63281 0 1.1445 0.51172 1.1445 1.1445s-0.51172 1.1445-1.1445 1.1445zm0-5.1172c-0.63281 0-1.1445-0.51172-1.1445-1.1445 0-0.63281 0.51172-1.1445 1.1445-1.1445h11.582c0.63281 0 1.1445 0.51172 1.1445 1.1445 0 0.63281-0.51172 1.1445-1.1445 1.1445zm0-13.613c-0.63281 0-1.1445-0.51172-1.1445-1.1445 0-0.63281 0.51172-1.1445 1.1445-1.1445h16.445c0.63281 0 1.1445 0.51172 1.1445 1.1445 0 0.63281-0.51172 1.1445-1.1445 1.1445zm0-5.1172c-0.63281 0-1.1445-0.51172-1.1445-1.1445 0-0.63281 0.51172-1.1445 1.1445-1.1445h11.582c0.63281 0 1.1445 0.51172 1.1445 1.1445 0 0.63281-0.51172 1.1445-1.1445 1.1445zm-13.965 14.273c-0.54297 0-1.0352 0.22266-1.3906 0.57813-0.35547 0.35547-0.57812 0.84766-0.57812 1.3906v7.8047c0 0.54297 0.22266 1.0352 0.57812 1.3906 0.35547 0.35547 0.84766 0.57812 1.3906 0.57812h8.0156c0.53906 0 1.0312-0.22266 1.3867-0.57812l0.003907-0.003906c0.35547-0.35547 0.57812-0.84766 0.57812-1.3867v-7.8047c0-0.53906-0.22266-1.0312-0.57812-1.3867l-0.003907-0.003906c-0.35547-0.35547-0.84766-0.57813-1.3867-0.57813zm7.6992 2.2891h-7.3789v7.168h7.3789zm-7.6992-21.02c-0.54297 0-1.0352 0.22266-1.3906 0.57812-0.35547 0.35547-0.57812 0.84766-0.57812 1.3906v7.8047c0 0.53906 0.22266 1.0312 0.57812 1.3867l0.003907 0.003906c0.35547 0.35547 0.84766 0.57812 1.3867 0.57812h8.0156c0.53516 0 1.0273-0.21875 1.3828-0.57422l0.007813-0.007812c0.35547-0.35938 0.57812-0.84766 0.57812-1.3867v-7.8047c0-0.53906-0.22266-1.0312-0.57812-1.3867l-0.003907-0.003906c-0.35547-0.35547-0.84766-0.57812-1.3867-0.57812zm7.6992 2.2891h-7.3789v7.168h7.3789zm22.191-18.359c-0.63281 0-1.1445-0.51172-1.1445-1.1445s0.51172-1.1445 1.1445-1.1445h42.32c0.63281 0 1.1445 0.51172 1.1445 1.1445s-0.51172 1.1445-1.1445 1.1445zm-11.277-4.7891c1.0078 0 1.918 0.41016 2.5742 1.0664 0.66016 0.66016 1.0664 1.5703 1.0664 2.5742 0 1.0078-0.40625 1.918-1.0664 2.5742-0.66016 0.66016-1.5703 1.0664-2.5742 1.0664-1.0078 0-1.918-0.41016-2.5742-1.0664-0.66016-0.66016-1.0664-1.5703-1.0664-2.5742 0-1.0078 0.40625-1.918 1.0664-2.5742 0.65625-0.66016 1.5703-1.0664 2.5742-1.0664zm0.96094 2.6836c-0.24609-0.24609-0.58594-0.39844-0.96094-0.39844s-0.71484 0.15234-0.96094 0.39844c-0.24609 0.24609-0.39844 0.58594-0.39844 0.96094s0.15234 0.71484 0.39844 0.96094c0.24609 0.24609 0.58594 0.39844 0.96094 0.39844s0.71484-0.15234 0.96094-0.39844c0.24609-0.24609 0.39844-0.58594 0.39844-0.96094-0.003906-0.375-0.15234-0.71484-0.39844-0.96094zm-11.262-2.6836c1.0078 0 1.918 0.41016 2.5742 1.0664 0.66016 0.66016 1.0664 1.5703 1.0664 2.5742 0 1.0078-0.41016 1.918-1.0664 2.5742-0.66016 0.66016-1.5703 1.0664-2.5742 1.0664-1.0078 0-1.918-0.41016-2.5781-1.0664-0.66016-0.66016-1.0664-1.5703-1.0664-2.5742 0-1.0078 0.41016-1.918 1.0664-2.5742 0.66016-0.66016 1.5742-1.0664 2.5781-1.0664zm0.96094 2.6836c-0.24609-0.24609-0.58594-0.39844-0.96094-0.39844s-0.71484 0.15234-0.96094 0.39844c-0.24609 0.24609-0.39844 0.58594-0.39844 0.96094s0.15234 0.71484 0.39844 0.96094c0.24609 0.24609 0.58594 0.39844 0.96094 0.39844s0.71484-0.15234 0.96094-0.39844c0.24609-0.24609 0.39844-0.58594 0.39844-0.96094s-0.15234-0.71484-0.39844-0.96094zm-11.262-2.6836c1.0078 0 1.918 0.41016 2.5742 1.0664 0.66016 0.66016 1.0664 1.5703 1.0664 2.5742 0 1.0078-0.41016 1.918-1.0664 2.5742-0.66016 0.66016-1.5703 1.0664-2.5742 1.0664-1.0078 0-1.918-0.41016-2.5781-1.0664-0.66016-0.66016-1.0664-1.5703-1.0664-2.5742s0.41016-1.918 1.0664-2.5742c0.66016-0.66016 1.5742-1.0664 2.5781-1.0664zm0.96094 2.6836c-0.24609-0.24609-0.58594-0.39844-0.96094-0.39844s-0.71484 0.15234-0.96094 0.39844c-0.24609 0.24609-0.39844 0.58594-0.39844 0.96094s0.15234 0.71484 0.39844 0.96094c0.24609 0.24609 0.58594 0.39844 0.96094 0.39844s0.71484-0.15234 0.96094-0.39844c0.24609-0.24609 0.39844-0.58594 0.39844-0.96094s-0.15234-0.71484-0.39844-0.96094zm80.875 10.824h-89.18v42.383c0 1.3789 0.56641 2.6328 1.4766 3.543 0.91016 0.91016 2.1641 1.4766 3.543 1.4766h79.141c1.3789 0 2.6328-0.56641 3.543-1.4766 0.91016-0.91016 1.4766-2.1641 1.4766-3.543l-0.003906-42.383zm-89.18-2.2852h89.176v-10.141c0-1.3789-0.56641-2.6328-1.4766-3.543-0.91016-0.91016-2.1641-1.4766-3.543-1.4766h-79.137c-1.3789 0-2.6328 0.56641-3.543 1.4766-0.91016 0.91016-1.4766 2.1641-1.4766 3.543zm5.0195-17.445c-2.0117 0-3.8359 0.82031-5.1602 2.1445-1.3242 1.3242-2.1445 3.1523-2.1445 5.1602v54.812c0 2.0117 0.82031 3.8359 2.1445 5.1602 1.3242 1.3242 3.1484 2.1445 5.1602 2.1445h79.141c2.0078 0 3.8359-0.82031 5.1602-2.1445 1.3242-1.3242 2.1445-3.1523 2.1445-5.1602v-54.812c0-2.0117-0.82031-3.8359-2.1445-5.1602-1.3242-1.3242-3.1484-2.1445-5.1602-2.1445z" fill-rule="evenodd"/>
<text x="0.0" y="117.5" font-size="5.0" font-weight="bold" font-family="Arbeit Regular, Helvetica, Arial-Unicode, Arial, Sans-serif" fill="#000000">Created by Sugiman</text><text x="0.0" y="122.5" font-size="5.0" font-weight="bold" font-family="Arbeit Regular, Helvetica, Arial-Unicode, Arial, Sans-serif" fill="#000000">from Noun Project</text></svg>